<svg xmlns="http://www.w3.org/2000/svg" viewBox="0 0 800 500" width="100%" height="auto" preserveAspectRatio="xMidYMid meet" role="img" aria-label="Atlas Finans yeni landing mockup">
  <rect width="800" height="500" fill="#060e18"/>
  <rect y="0" width="800" height="36" fill="#0a1420"/>
  <circle cx="20" cy="18" r="6" fill="#ef4444" opacity="0.6"/>
  <circle cx="40" cy="18" r="6" fill="#eab308" opacity="0.6"/>
  <circle cx="60" cy="18" r="6" fill="#22c55e" opacity="0.6"/>
  <rect y="36" width="800" height="48" fill="#080e18" stroke="#1a2840"/>
  <text x="24" y="66" font-family="system-ui,sans-serif" font-size="14" font-weight="700" fill="#60a5fa">Atlas Finans</text>
  <rect x="620" y="50" width="80" height="12" rx="3" fill="#1a3050"/>
  <text x="632" y="60" font-family="system-ui,sans-serif" font-size="8" fill="#60a5fa">SPK Lisansl1</text>
  <rect x="710" y="50" width="66" height="12" rx="3" fill="#1a3050"/>
  <text x="718" y="60" font-family="system-ui,sans-serif" font-size="8" fill="#22c55e">256-bit SSL</text>
  <rect x="40" y="100" width="420" height="360" rx="12" fill="#0a1420" stroke="#1a3050"/>
  <text x="60" y="140" font-family="system-ui,sans-serif" font-size="24" font-weight="800" fill="#f0f0ff">Yat1r1m1n1z1</text>
  <text x="60" y="172" font-family="system-ui,sans-serif" font-size="24" font-weight="800" fill="#60a5fa">Büyütün</text>
  <text x="60" y="206" font-family="system-ui,sans-serif" font-size="12" fill="#6b8aaa">12.000+ aktif yat1r1mc1 · %18 ort. getiri</text>
  <rect x="60" y="230" width="380" height="140" rx="10" fill="#0d1a28" stroke="#1a3050"/>
  <text x="80" y="258" font-family="system-ui,sans-serif" font-size="11" font-weight="600" fill="#a78bfa">Getiri Hesaplay1c1</text>
  <text x="80" y="286" font-family="system-ui,sans-serif" font-size="10" fill="#6b8aaa">Yat1r1m tutar1</text>
  <rect x="80" y="294" width="160" height="28" rx="6" fill="#1a3050"/>
  <text x="92" y="313" font-family="system-ui,sans-serif" font-size="12" fill="#f0f0ff">º50.000</text>
  <text x="260" y="286" font-family="system-ui,sans-serif" font-size="10" fill="#6b8aaa">Süre</text>
  <rect x="260" y="294" width="160" height="28" rx="6" fill="#1a3050"/>
  <text x="272" y="313" font-family="system-ui,sans-serif" font-size="12" fill="#f0f0ff">12 ay</text>
  <text x="80" y="352" font-family="system-ui,sans-serif" font-size="18" font-weight="700" fill="#22c55e">Tahmini: º59.000</text>
  <rect x="480" y="100" width="280" height="360" rx="12" fill="#0a1420" stroke="#1a3050"/>
  <text x="500" y="136" font-family="system-ui,sans-serif" font-size="12" font-weight="600" fill="#f0f0ff">KYC  3 Ad1m</text>
  <circle cx="520" cy="168" r="12" fill="#7c6fff"/>
  <text x="516" y="173" font-family="system-ui,sans-serif" font-size="10" fill="#fff">1</text>
  <text x="544" y="173" font-family="system-ui,sans-serif" font-size="11" fill="#8b9ab0">Kimlik dorulama</text>
  <circle cx="520" cy="210" r="12" fill="#1a3050" stroke="#7c6fff"/>
  <text x="516" y="215" font-family="system-ui,sans-serif" font-size="10" fill="#7c6fff">2</text>
  <text x="544" y="215" font-family="system-ui,sans-serif" font-size="11" fill="#6b8aaa">Banka balant1s1</text>
  <circle cx="520" cy="252" r="12" fill="#1a3050"/>
  <text x="516" y="257" font-family="system-ui,sans-serif" font-size="10" fill="#6b8aaa">3</text>
  <text x="544" y="257" font-family="system-ui,sans-serif" font-size="11" fill="#6b8aaa">0lk yat1r1m</text>
  <rect x="500" y="290" width="240" height="60" rx="8" fill="#0d1a28"/>
  <text x="516" y="314" font-family="system-ui,sans-serif" font-size="10" fill="#6b8aaa">"Güvenilir ve _effaf platform"</text>
  <text x="516" y="334" font-family="system-ui,sans-serif" font-size="9" fill="#4a6080"> Ay_e K., 8 ayd1r yat1r1mc1</text>
  <rect x="500" y="370" width="240" height="44" rx="10" fill="#7c6fff"/>
  <text x="560" y="398" font-family="system-ui,sans-serif" font-size="13" font-weight="600" fill="#fff">Hesap Aç</text>
</svg>
