<svg xmlns="http://www.w3.org/2000/svg" viewBox="0 0 800 500" width="100%" height="auto" preserveAspectRatio="xMidYMid meet" role="img" aria-label="Lumière eski e-ticaret mockup">
  <rect width="800" height="500" fill="#f5f0f2"/>
  <rect y="0" width="800" height="36" fill="#e8dfe3"/>
  <circle cx="20" cy="18" r="6" fill="#ccc"/>
  <circle cx="40" cy="18" r="6" fill="#ccc"/>
  <circle cx="60" cy="18" r="6" fill="#ccc"/>
  <rect y="36" width="800" height="44" fill="#fff" stroke="#e0d5da"/>
  <text x="24" y="64" font-family="Georgia,serif" font-size="16" fill="#8b6b7a">Lumière</text>
  <rect x="24" y="96" width="752" height="24" fill="#fff" stroke="#e0d5da"/>
  <text x="40" y="112" font-family="system-ui,sans-serif" font-size="10" fill="#aaa">Ana Sayfa : Cilt Bak1m1 : Serum</text>
  <rect x="24" y="136" width="360" height="280" fill="#eee" stroke="#ddd"/>
  <text x="160" y="290" font-family="system-ui,sans-serif" font-size="11" fill="#bbb">[ küçük ürün görseli ]</text>
  <rect x="404" y="136" width="372" height="280" fill="#fff"/>
  <rect x="420" y="152" width="200" height="14" rx="2" fill="#ccc"/>
  <rect x="420" y="178" width="80" height="12" rx="2" fill="#ddd"/>
  <text x="420" y="220" font-family="system-ui,sans-serif" font-size="22" fill="#666">º349</text>
  <rect x="420" y="240" width="340" height="8" rx="2" fill="#eee"/>
  <rect x="420" y="256" width="300" height="8" rx="2" fill="#eee"/>
  <rect x="420" y="290" width="120" height="32" rx="4" fill="#b8a0aa"/>
  <text x="448" y="311" font-family="system-ui,sans-serif" font-size="11" fill="#fff">Sepete Ekle</text>
  <rect x="24" y="432" width="752" height="52" fill="#fff" stroke="#e0d5da"/>
  <text x="40" y="462" font-family="system-ui,sans-serif" font-size="10" fill="#aaa">Kargo bilgisi checkout ad1m1nda gösterilir · 5 ad1ml1 ödeme</text>
</svg>
